<?xml version="1.0" standalone="no"?>
<!DOCTYPE svg PUBLIC "-//W3C//DTD SVG 20010904//EN"
 "http://www.w3.org/TR/2001/REC-SVG-20010904/DTD/svg10.dtd">
<svg version="1.0" xmlns="http://www.w3.org/2000/svg"
 width="16.000000pt" height="16.000000pt" viewBox="0 0 16.000000 16.000000"
 preserveAspectRatio="xMidYMid meet">
<metadata>
Created by potrace 1.11, written by Peter Selinger 2001-2013
</metadata>
<g transform="translate(0.000000,16.000000) scale(0.002388,-0.002388)"
fill="#000000" stroke="none">
<path d="M3755 5524 c-86 -26 -332 -75 -348 -68 -10 3 -27 -3 -42 -14 -14 -12
-50 -28 -78 -37 -77 -25 -420 -199 -512 -260 -44 -29 -109 -67 -145 -85 -233
-117 -350 -195 -492 -327 -63 -59 -157 -144 -208 -188 -104 -91 -217 -212
-307 -330 -63 -83 -162 -261 -183 -330 -18 -58 -183 -371 -244 -465 -58 -88
-144 -309 -181 -465 -53 -219 -83 -321 -120 -406 -51 -116 -84 -231 -95 -329
-6 -49 -25 -136 -44 -193 -19 -57 -42 -141 -51 -188 -20 -98 -98 -387 -120
-442 -8 -20 -24 -81 -36 -135 -11 -53 -25 -101 -29 -106 -5 -5 -4 -18 2 -30 6
-11 14 -28 18 -36 16 -34 78 -41 385 -45 165 -2 332 -6 370 -9 39 -3 311 -8
605 -11 294 -3 562 -8 595 -10 74 -6 254 -16 357 -20 43 -2 82 -7 88 -10 5 -3
10 -2 10 3 0 6 55 10 133 10 72 1 143 2 157 4 14 3 31 0 38 -5 8 -6 12 -5 12
2 0 8 6 9 18 3 9 -4 27 -7 40 -6 12 0 22 -3 22 -8 0 -5 5 -6 12 -2 7 5 31 7
53 5 90 -6 185 -6 185 2 0 4 9 3 19 -3 14 -7 21 -6 24 3 3 7 6 8 6 1 1 -7 12
-9 27 -6 16 3 30 -1 35 -9 7 -12 9 -12 9 0 0 9 8 12 25 9 14 -3 25 -1 25 6 0
7 3 7 8 1 9 -13 52 -15 52 -2 0 5 7 4 15 -3 12 -10 15 -10 15 0 0 9 8 7 26 -5
15 -9 23 -12 19 -5 -6 9 0 11 24 8 18 -3 35 0 38 5 4 6 1 7 -7 2 -9 -5 -11 -4
-6 4 6 9 11 9 23 0 12 -10 16 -10 24 2 7 12 9 12 9 -1 0 -13 1 -13 10 0 5 8
10 10 10 3 0 -9 19 -11 40 -3 14 6 36 4 47 -3 7 -5 15 -1 22 10 10 17 10 17
11 -2 0 -17 2 -17 10 -5 5 8 10 12 10 8 0 -4 13 -3 29 2 17 5 33 4 39 -2 6 -6
12 -6 17 3 6 8 4 10 -6 4 -11 -6 -11 -5 -2 5 9 10 15 10 28 -4 15 -14 35 -14
35 0 0 3 -4 3 -9 -1 -5 -3 -12 -2 -15 3 -2 4 7 9 20 10 14 1 23 -2 20 -6 -3
-5 2 -9 10 -9 9 0 13 6 9 16 -3 8 -3 12 1 8 4 -4 16 1 27 10 11 10 17 13 14 7
-4 -7 0 -17 8 -24 12 -10 15 -10 15 0 0 6 6 10 13 7 6 -2 11 -10 9 -16 -1 -7
2 -10 7 -7 5 4 8 15 6 26 -3 13 1 17 11 13 7 -3 11 -10 7 -16 -4 -6 -1 -7 6
-3 7 5 10 13 8 20 -3 6 4 12 14 12 21 0 25 -12 7 -19 -7 -2 -11 -7 -8 -10 3
-3 13 1 23 8 16 11 17 17 6 37 l-12 23 20 -20 c11 -11 19 -23 17 -26 -2 -3 4
-6 12 -6 10 0 11 4 4 11 -15 15 -12 22 10 23 11 1 20 -3 20 -8 0 -6 -5 -7 -12
-3 -7 4 -8 3 -4 -5 11 -17 29 -2 23 20 -3 10 0 17 6 16 6 -1 11 3 12 10 0 6 4
15 9 20 6 5 6 2 1 -6 -6 -11 -4 -13 11 -8 18 7 18 7 0 -8 -22 -17 -20 -18 46
-19 26 -1 44 2 42 6 -3 4 0 8 5 8 6 0 11 -5 11 -12 0 -6 3 -9 6 -5 3 3 -1 16
-10 29 -9 12 -16 27 -16 32 0 6 7 1 15 -11 9 -13 23 -20 35 -18 11 2 20 0 20
-6 0 -5 5 -9 11 -9 8 0 8 5 -1 15 -7 8 -17 12 -23 8 -5 -3 -7 -1 -3 5 3 6 2
13 -4 17 -5 3 -10 -2 -10 -11 0 -10 -3 -15 -6 -11 -4 3 -4 14 0 23 5 13 9 15
18 6 18 -18 61 -15 55 3 -4 8 -1 17 5 21 7 4 8 3 4 -4 -4 -7 -2 -12 3 -12 6 0
11 6 11 13 0 8 3 8 8 2 4 -6 16 -10 27 -10 11 0 28 -3 39 -8 12 -6 16 -5 12 1
-12 19 17 25 31 7 7 -11 13 -14 13 -8 0 7 -5 15 -10 18 -6 4 -8 10 -6 14 3 4
-4 8 -15 8 -12 1 -17 -3 -13 -9 5 -7 2 -8 -6 -3 -9 5 -11 4 -6 -3 4 -7 2 -12
-3 -12 -16 0 -13 15 4 30 8 6 20 8 26 4 9 -5 10 -2 6 12 -7 18 -6 18 7 2 14
-19 32 -25 21 -9 -3 5 -1 12 5 16 6 4 7 11 4 17 -5 7 -2 8 6 3 7 -4 16 -2 21
6 6 9 9 10 9 2 0 -6 9 -10 20 -8 11 2 23 -2 27 -10 7 -11 15 -10 43 6 23 13
27 17 11 13 -15 -4 -21 -2 -17 4 3 6 1 14 -5 18 -7 4 -9 3 -5 -4 4 -7 -1 -10
-14 -7 -11 2 -18 0 -15 -5 3 -4 -5 -6 -17 -2 -21 5 -21 6 -2 12 10 4 22 6 27
3 4 -2 7 1 7 7 0 8 7 9 18 5 9 -4 23 -9 30 -12 6 -3 12 1 12 8 0 7 -3 10 -6 6
-4 -3 -13 0 -20 8 -16 15 -19 29 -5 20 6 -3 14 3 20 12 6 10 11 13 11 7 0 -7
7 -15 16 -18 12 -5 15 -2 10 11 -4 10 -4 14 0 11 3 -4 20 6 37 22 17 16 37 26
45 22 10 -3 13 -1 8 6 -3 6 -2 13 4 17 6 4 7 11 4 17 -4 7 -2 8 4 4 7 -4 12
-4 12 1 0 4 14 15 32 22 18 8 27 16 20 19 -7 2 -12 8 -12 13 0 4 7 5 17 2 9
-4 14 -2 10 3 -3 6 -2 16 2 23 6 10 10 9 14 -4 4 -9 3 -13 -3 -10 -5 3 -7 -4
-5 -15 2 -11 0 -20 -6 -20 -5 0 -8 -3 -8 -7 4 -22 -3 -30 -23 -29 -34 3 -51
-13 -36 -32 11 -13 11 -14 -1 -7 -10 6 -12 4 -6 -5 6 -9 4 -11 -5 -5 -9 5 -11
4 -6 -3 4 -8 2 -10 -7 -6 -8 3 -18 0 -23 -7 -5 -9 -2 -10 10 -6 12 5 16 3 13
-5 -2 -7 -10 -12 -16 -11 -6 2 -11 -2 -11 -7 0 -13 17 -13 25 0 4 6 11 8 16 5
5 -4 6 2 2 12 -6 15 -4 16 9 5 11 -9 18 -10 23 -2 4 6 2 9 -3 8 -6 -2 -10 2
-10 7 0 6 4 9 10 7 5 -1 7 2 3 8 -3 5 1 10 9 10 10 0 13 6 10 17 -5 15 -3 15
10 -1 9 -11 16 -14 16 -7 0 7 5 9 10 6 6 -4 10 -3 9 2 -3 20 2 27 11 13 6 -9
10 -10 10 -3 0 19 -21 27 -31 12 -5 -8 -9 -9 -9 -4 0 14 15 36 26 38 9 2 9 6
0 44 -3 16 -1 20 9 16 8 -2 14 -8 13 -11 -2 -20 3 -32 14 -32 9 0 9 3 1 11 -9
9 -8 18 3 35 9 13 15 25 15 28 -3 18 1 19 10 6 9 -13 10 -13 6 2 -3 9 -1 18 6
21 6 2 3 6 -7 10 -12 5 -15 3 -10 -6 6 -8 3 -8 -9 1 -9 8 -22 10 -28 6 -8 -5
-9 -3 -5 5 5 7 15 10 23 7 9 -4 13 -1 10 6 -2 7 -11 12 -20 12 -9 -1 -14 2
-11 7 7 12 34 11 34 -1 0 -6 10 -5 25 2 14 6 25 14 25 18 0 13 -27 30 -35 22
-5 -4 -5 -1 -1 6 5 9 12 9 28 1 15 -8 23 -8 32 2 8 9 8 10 -3 4 -9 -5 -12 -4
-7 3 4 7 16 12 27 12 10 0 19 4 19 8 0 9 -47 8 -57 -1 -3 -4 -13 -7 -22 -7
-11 0 -7 6 10 18 296 194 493 393 595 599 27 54 59 114 72 133 115 169 181
523 130 690 -36 118 -146 234 -331 350 -110 69 -273 90 -382 48 l-57 -21 -39
44 c-53 60 -57 81 -25 128 24 34 35 71 67 226 16 77 28 228 19 244 -4 8 -3 25
3 38 7 16 7 51 -1 121 -20 165 -30 204 -62 250 -19 27 -33 61 -36 90 -13 108
-155 317 -322 473 -135 126 -348 252 -492 292 -30 9 -95 27 -145 41 -70 21
-121 27 -230 32 -77 3 -167 10 -200 16 -83 15 -262 16 -310 2z m-40 -1614 c3
-6 -1 -7 -9 -4 -18 7 -21 14 -7 14 6 0 13 -4 16 -10z m1738 -2219 c-12 -10
-19 -22 -15 -26 4 -5 2 -5 -5 -1 -7 4 -25 -1 -40 -10 -15 -10 -23 -12 -16 -4
11 12 82 57 93 59 3 0 -5 -8 -17 -18z m39 -33 c-7 -7 -16 -7 -28 0 -14 8 -13
10 10 10 18 0 24 -4 18 -10z m-105 -55 c-4 -3 -1 -13 6 -22 11 -14 10 -14 -5
-2 -16 12 -16 31 -1 31 4 0 3 -3 0 -7z m33 -33 c-6 -11 -12 -20 -14 -20 -2 0
-2 9 1 20 3 11 9 20 15 20 5 0 4 -9 -2 -20z m31 7 c-6 -8 -8 -17 -4 -20 3 -4
1 -7 -6 -7 -7 0 -9 -5 -5 -12 4 -7 3 -8 -4 -4 -13 8 5 56 21 56 5 0 5 -6 -2
-13z m-41 -97 c0 -5 -2 -10 -4 -10 -3 0 -8 5 -11 10 -3 6 -1 10 4 10 6 0 11
-4 11 -10z m-73 -6 c-3 -3 -12 -4 -19 -1 -8 3 -5 6 6 6 11 1 17 -2 13 -5z
m-93 -60 c3 -8 2 -12 -4 -9 -6 3 -10 10 -10 16 0 14 7 11 14 -7z m91 7 c3 -5
1 -12 -5 -16 -5 -3 -10 1 -10 9 0 18 6 21 15 7z m-137 -41 c-7 -10 -14 -17
-17 -15 -4 4 18 35 25 35 2 0 -1 -9 -8 -20z m-73 -120 c3 -5 -1 -10 -10 -10
-9 0 -13 5 -10 10 3 6 8 10 10 10 2 0 7 -4 10 -10z m-198 -48 c-10 -10 -14
-22 -10 -26 4 -4 0 -4 -10 0 -9 3 -17 10 -17 16 0 5 4 7 9 4 5 -3 14 1 21 9 7
8 15 15 18 15 3 0 -2 -8 -11 -18z m-222 -72 c3 -5 1 -10 -4 -10 -6 0 -11 5
-11 10 0 6 2 10 4 10 3 0 8 -4 11 -10z m33 -22 c-3 -7 -19 -13 -36 -14 -17 -1
-29 3 -26 8 3 4 8 7 12 4 4 -2 16 0 27 5 27 11 27 11 23 -3z"/>
<path d="M5581 1704 c0 -11 3 -14 6 -6 3 7 2 16 -1 19 -3 4 -6 -2 -5 -13z"/>
<path d="M5495 1630 c-4 -6 -11 -8 -16 -5 -5 4 -9 1 -9 -4 0 -16 16 -13 30 4
7 8 10 15 7 15 -3 0 -9 -5 -12 -10z"/>
<path d="M5490 1559 c0 -5 5 -7 10 -4 6 3 10 8 10 11 0 2 -4 4 -10 4 -5 0 -10
-5 -10 -11z"/>
<path d="M5464 1524 c-18 -14 -18 -15 4 -4 12 6 22 13 22 15 0 8 -5 6 -26 -11z"/>
<path d="M5427 1466 c-4 -10 -1 -13 8 -9 8 3 12 9 9 14 -7 12 -11 11 -17 -5z"/>
<path d="M5345 1450 c-3 -6 1 -7 9 -4 18 7 21 14 7 14 -6 0 -13 -4 -16 -10z"/>
<path d="M5237 1360 c-14 -16 -27 -35 -29 -41 -3 -9 -9 -9 -25 -1 -11 6 -23 9
-26 5 -7 -6 36 -43 50 -43 4 0 1 5 -7 11 -12 9 -10 10 8 6 13 -3 21 -3 18 0
-3 4 1 14 10 24 8 9 16 23 18 31 1 7 5 19 9 26 15 22 -1 12 -26 -18z m3 -20
c-6 -11 -13 -20 -16 -20 -2 0 0 9 6 20 6 11 13 20 16 20 2 0 0 -9 -6 -20z"/>
<path d="M5350 1379 c0 -5 5 -7 10 -4 6 3 10 8 10 11 0 2 -4 4 -10 4 -5 0 -10
-5 -10 -11z"/>
<path d="M5253 1302 c2 -12 6 -24 10 -28 3 -4 4 4 2 16 -6 30 -16 40 -12 12z"/>
<path d="M5290 1300 c0 -5 5 -10 11 -10 5 0 7 5 4 10 -3 6 -8 10 -11 10 -2 0
-4 -4 -4 -10z"/>
<path d="M5025 1234 c-10 -8 -15 -14 -11 -14 5 0 3 -6 -3 -13 -8 -10 -7 -14 4
-14 8 0 11 5 8 10 -4 6 4 8 20 5 16 -3 25 -1 24 6 -1 6 4 10 11 9 6 -2 12 2
12 7 0 6 -3 10 -7 11 -5 0 -15 2 -24 4 -8 1 -24 -4 -34 -11z m39 -6 c-3 -4
-12 -8 -20 -8 -8 0 -13 4 -10 8 3 5 12 9 20 9 8 0 13 -4 10 -9z"/>
<path d="M5040 1186 c0 -2 7 -7 16 -10 8 -3 12 -2 9 4 -6 10 -25 14 -25 6z"/>
<path d="M4863 1156 c-5 -7 -15 -16 -23 -19 -12 -4 -11 -6 3 -6 10 -1 20 5 23
13 7 17 40 13 36 -5 -2 -9 1 -9 15 1 28 22 29 24 11 17 -9 -3 -19 -3 -22 1
-12 11 -36 10 -43 -2z"/>
<path d="M4630 1084 c0 -8 5 -12 10 -9 6 4 8 11 5 16 -9 14 -15 11 -15 -7z"/>
<path d="M4386 1031 c-3 -5 2 -15 12 -22 15 -12 16 -12 5 2 -7 9 -10 19 -6 22
3 4 4 7 0 7 -3 0 -8 -4 -11 -9z"/>
</g>
</svg>
